<svg width="18" height="18" viewBox="0 0 18 18" fill="none" xmlns="http://www.w3.org/2000/svg">
<path fill-rule="evenodd" clip-rule="evenodd" d="M8.23125 2.25141C8.27516 2.44534 8.24025 2.64878 8.13421 2.81698C8.02816 2.98519 7.85966 3.1044 7.66575 3.14841C7.51858 3.1819 7.37273 3.22092 7.2285 3.26541C7.13439 3.29446 7.03548 3.3047 6.93742 3.29553C6.83936 3.28636 6.74406 3.25796 6.65697 3.21196C6.56988 3.16596 6.4927 3.10326 6.42985 3.02743C6.36699 2.95161 6.31968 2.86414 6.29063 2.77003C6.26157 2.67593 6.25134 2.57702 6.26051 2.47895C6.26968 2.38089 6.29808 2.28559 6.34408 2.1985C6.39008 2.11141 6.45278 2.03423 6.5286 1.97138C6.60443 1.90852 6.6919 1.86121 6.786 1.83216C6.966 1.77616 7.1485 1.72741 7.3335 1.68591C7.42958 1.66406 7.52903 1.66136 7.62615 1.67795C7.72328 1.69455 7.81618 1.73012 7.89955 1.78264C7.98292 1.83516 8.05513 1.90359 8.11204 1.98402C8.16896 2.06445 8.20947 2.15531 8.23125 2.25141ZM9.76875 2.25141C9.81276 2.0575 9.93197 1.889 10.1002 1.78295C10.2684 1.67691 10.4718 1.642 10.6658 1.68591C14.0063 2.44341 16.5008 5.42991 16.5008 8.99991C16.5008 13.1422 13.1423 16.4999 9.00075 16.4999C5.43 16.4999 2.4435 14.0062 1.686 10.6657C1.64712 10.4736 1.68492 10.274 1.7913 10.1095C1.89769 9.94502 2.06423 9.82867 2.25529 9.78537C2.44635 9.74206 2.64678 9.77523 2.8137 9.87779C2.98062 9.98035 3.10079 10.1441 3.1485 10.3342C3.38716 11.3795 3.90158 12.3417 4.63823 13.1208C5.37488 13.8999 6.30684 14.4674 7.33716 14.7642C8.36748 15.061 9.45851 15.0763 10.4967 14.8084C11.535 14.5406 12.4824 13.9994 13.2406 13.2413C13.9988 12.4831 14.5399 11.5356 14.8078 10.4974C15.0756 9.45917 15.0603 8.36814 14.7635 7.33782C14.4667 6.3075 13.8993 5.37553 13.1202 4.63888C12.3411 3.90224 11.3788 3.38782 10.3335 3.14916C10.1396 3.10499 9.97112 2.9856 9.86521 2.81724C9.7593 2.64888 9.7246 2.44535 9.76875 2.25141ZM4.9605 3.53991C5.02758 3.61213 5.07976 3.69686 5.11406 3.78925C5.14837 3.88165 5.16413 3.97991 5.16044 4.0784C5.15674 4.17689 5.13368 4.27369 5.09255 4.36326C5.05142 4.45283 4.99304 4.53341 4.92075 4.60041C4.80975 4.70291 4.703 4.80941 4.6005 4.91991C4.46426 5.06167 4.27779 5.14427 4.08125 5.1499C3.88471 5.15554 3.69382 5.08377 3.54967 4.95005C3.40552 4.81632 3.31965 4.63134 3.31055 4.43493C3.30145 4.23852 3.36984 4.04639 3.501 3.89991C3.6285 3.76191 3.7615 3.62866 3.9 3.50016C3.97222 3.43308 4.05695 3.3809 4.14935 3.3466C4.24175 3.31229 4.34 3.29653 4.43849 3.30023C4.53698 3.30392 4.63378 3.32699 4.72335 3.36811C4.81292 3.40924 4.89351 3.46762 4.9605 3.53991ZM9 4.49991C9.19892 4.49991 9.38968 4.57893 9.53033 4.71958C9.67099 4.86023 9.75 5.051 9.75 5.24991V8.68941L11.7803 10.7197C11.9169 10.8611 11.9925 11.0506 11.9908 11.2472C11.989 11.4439 11.9102 11.632 11.7711 11.771C11.6321 11.9101 11.444 11.989 11.2473 11.9907C11.0507 11.9924 10.8612 11.9168 10.7198 11.7802L8.46975 9.53016C8.32909 9.38954 8.25005 9.1988 8.25 8.99991V5.24991C8.25 5.051 8.32902 4.86023 8.46967 4.71958C8.61033 4.57893 8.80109 4.49991 9 4.49991ZM2.76975 6.29091C2.9598 6.34951 3.11878 6.4812 3.21175 6.65701C3.30472 6.83281 3.32405 7.03835 3.2655 7.22841C3.22102 7.37263 3.18199 7.51849 3.1485 7.66566C3.10079 7.85567 2.98062 8.01947 2.8137 8.12203C2.64678 8.22459 2.44635 8.25776 2.25529 8.21445C2.06423 8.17114 1.89769 8.05479 1.7913 7.89029C1.68492 7.72578 1.64712 7.52617 1.686 7.33416C1.728 7.14916 1.77675 6.96666 1.83225 6.78666C1.89086 6.59661 2.02254 6.43763 2.19835 6.34466C2.37416 6.25169 2.57969 6.23236 2.76975 6.29091Z" fill="#7C8086"/>
</svg>
