<svg width="36" height="36" viewBox="0 0 36 36" fill="none" xmlns="http://www.w3.org/2000/svg">
<path d="M26.25 4.49998C27.2792 4.49988 28.2856 4.80225 29.1443 5.3695C30.003 5.93674 30.676 6.74384 31.0797 7.69046C31.4834 8.63709 31.6 9.68149 31.415 10.6938C31.23 11.7062 30.7515 12.6418 30.039 13.3845C31.0027 15.2788 31.5034 17.3746 31.5 19.5C31.5018 21.3778 31.1109 23.2352 30.3525 24.953C29.5941 26.6708 28.4849 28.2111 27.096 29.475L28.0605 30.4395C28.3338 30.7224 28.485 31.1013 28.4816 31.4946C28.4781 31.8879 28.3204 32.2641 28.0423 32.5422C27.7642 32.8203 27.3879 32.9781 26.9946 32.9815C26.6014 32.9849 26.2224 32.8337 25.9395 32.5605L24.6375 31.2585C22.613 32.4035 20.326 33.0036 18 33C15.6741 33.0036 13.3871 32.4035 11.3625 31.2585L10.0605 32.5605C9.77764 32.8337 9.39874 32.9849 9.00544 32.9815C8.61215 32.9781 8.23593 32.8203 7.95782 32.5422C7.6797 32.2641 7.52195 31.8879 7.51853 31.4946C7.51512 31.1013 7.66631 30.7224 7.93954 30.4395L8.90404 29.475C7.51523 28.2111 6.40601 26.6708 5.64759 24.953C4.88916 23.2352 4.49828 21.3778 4.50004 19.5C4.49665 17.3746 4.99735 15.2788 5.96104 13.3845C5.46445 12.8671 5.0791 12.2535 4.82878 11.5815C4.57846 10.9095 4.46846 10.1934 4.50557 9.4772C4.54268 8.76104 4.72612 8.06008 5.04457 7.41755C5.36302 6.77502 5.80972 6.20454 6.35714 5.74129C6.90455 5.27805 7.54106 4.93187 8.22742 4.72409C8.91378 4.51632 9.63542 4.45136 10.3479 4.53322C11.0603 4.61508 11.7484 4.84203 12.3697 5.20007C12.9911 5.55811 13.5325 6.03964 13.9605 6.61498C15.268 6.20621 16.6301 5.99884 18 5.99998C19.407 5.99998 20.763 6.21448 22.0395 6.61498C22.5281 5.95877 23.1632 5.4258 23.8942 5.05859C24.6252 4.69138 25.432 4.50009 26.25 4.49998ZM18 12C17.6326 12 17.278 12.1349 17.0035 12.379C16.7289 12.6232 16.5535 12.9596 16.5105 13.3245L16.5 13.5V19.479C16.4953 19.8126 16.6019 20.1383 16.803 20.4045L16.938 20.5605L20.097 23.718C20.3664 23.9899 20.7294 24.1485 21.1119 24.1615C21.4943 24.1745 21.8673 24.0408 22.1544 23.7878C22.4415 23.5348 22.6211 23.1816 22.6564 22.8005C22.6916 22.4195 22.5799 22.0394 22.344 21.738L22.218 21.597L19.5 18.879V13.5C19.5 13.1022 19.342 12.7206 19.0607 12.4393C18.7794 12.158 18.3979 12 18 12Z" fill="#161616"/>
</svg>
