<svg width="28" height="32" viewBox="0 0 28 32" fill="none" xmlns="http://www.w3.org/2000/svg">
<path d="M14.8895 30.887L14.873 30.89L14.7665 30.9425L14.7365 30.9485L14.7155 30.9425L14.609 30.89C14.593 30.885 14.581 30.8875 14.573 30.8975L14.567 30.9125L14.5415 31.5545L14.549 31.5845L14.564 31.604L14.72 31.715L14.7425 31.721L14.7605 31.715L14.9165 31.604L14.9345 31.58L14.9405 31.5545L14.915 30.914C14.911 30.898 14.9025 30.889 14.8895 30.887ZM15.287 30.7175L15.2675 30.7205L14.99 30.86L14.975 30.875L14.9705 30.8915L14.9975 31.5365L15.005 31.5545L15.017 31.565L15.3185 31.7045C15.3375 31.7095 15.352 31.7055 15.362 31.6925L15.368 31.6715L15.317 30.7505C15.312 30.7325 15.302 30.7215 15.287 30.7175ZM14.2145 30.7205C14.2079 30.7165 14.2 30.7152 14.1925 30.7169C14.1849 30.7186 14.1783 30.7231 14.174 30.7295L14.165 30.7505L14.114 31.6715C14.115 31.6895 14.1235 31.7015 14.1395 31.7075L14.162 31.7045L14.4635 31.565L14.4785 31.553L14.4845 31.5365L14.51 30.8915L14.5055 30.8735L14.4905 30.8585L14.2145 30.7205Z" fill="#8DED60"/>
<path d="M22.25 0.499978C23.2792 0.499884 24.2856 0.802253 25.1443 1.3695C26.003 1.93674 26.676 2.74384 27.0797 3.69046C27.4834 4.63709 27.6 5.68149 27.415 6.69384C27.23 7.70619 26.7515 8.64184 26.039 9.38448C27.0027 11.2788 27.5034 13.3746 27.5 15.5C27.5018 17.3778 27.1109 19.2352 26.3525 20.953C25.5941 22.6708 24.4849 24.2111 23.096 25.475L24.0605 26.4395C24.3338 26.7224 24.485 27.1013 24.4816 27.4946C24.4781 27.8879 24.3204 28.2641 24.0423 28.5422C23.7642 28.8203 23.3879 28.9781 22.9946 28.9815C22.6014 28.9849 22.2224 28.8337 21.9395 28.5605L20.6375 27.2585C18.613 28.4035 16.326 29.0036 14 29C11.6741 29.0036 9.38708 28.4035 7.36254 27.2585L6.06054 28.5605C5.77764 28.8337 5.39874 28.9849 5.00544 28.9815C4.61215 28.9781 4.23593 28.8203 3.95782 28.5422C3.6797 28.2641 3.52195 27.8879 3.51853 27.4946C3.51512 27.1013 3.66631 26.7224 3.93954 26.4395L4.90404 25.475C3.51523 24.2111 2.40601 22.6708 1.64759 20.953C0.889159 19.2352 0.498282 17.3778 0.500044 15.5C0.496654 13.3746 0.997355 11.2788 1.96104 9.38448C1.46445 8.86713 1.0791 8.25353 0.82878 7.58152C0.578455 6.90952 0.468458 6.19335 0.505571 5.4772C0.542684 4.76104 0.726121 4.06008 1.04457 3.41755C1.36302 2.77502 1.80972 2.20454 2.35714 1.74129C2.90455 1.27805 3.54106 0.931867 4.22742 0.724093C4.91378 0.516318 5.63542 0.451359 6.34785 0.533222C7.06028 0.615084 7.74838 0.842033 8.36973 1.20007C8.99107 1.55811 9.53247 2.03964 9.96054 2.61498C11.268 2.20621 12.6301 1.99884 14 1.99998C15.407 1.99998 16.763 2.21448 18.0395 2.61498C18.5281 1.95877 19.1632 1.4258 19.8942 1.05859C20.6252 0.691378 21.432 0.500088 22.25 0.499978ZM14 7.99998C13.6326 8.00003 13.278 8.13491 13.0035 8.37905C12.7289 8.62319 12.5535 8.9596 12.5105 9.32448L12.5 9.49998V15.479C12.4953 15.8126 12.6019 16.1383 12.803 16.4045L12.938 16.5605L16.097 19.718C16.3664 19.9899 16.7294 20.1485 17.1119 20.1615C17.4943 20.1745 17.8673 20.0408 18.1544 19.7878C18.4415 19.5348 18.6211 19.1816 18.6564 18.8005C18.6916 18.4195 18.5799 18.0394 18.344 17.738L18.218 17.597L15.5 14.879V9.49998C15.5 9.10215 15.342 8.72062 15.0607 8.43932C14.7794 8.15801 14.3979 7.99998 14 7.99998Z" fill="#8DED60"/>
</svg>
