<svg width="25" height="25" viewBox="0 0 25 25" fill="none" xmlns="http://www.w3.org/2000/svg">
<path d="M12.5 2.5C18.023 2.5 22.5 6.977 22.5 12.5C22.5 18.023 18.023 22.5 12.5 22.5C6.977 22.5 2.5 18.023 2.5 12.5C2.5 6.977 6.977 2.5 12.5 2.5ZM15.908 5.26L13.088 7.309C12.9349 7.4203 12.7534 7.48587 12.5645 7.49808C12.3756 7.5103 12.1872 7.46865 12.021 7.378L11.912 7.309L9.092 5.26C8.28177 5.64213 7.54147 6.15764 6.902 6.785L6.668 7.024L7.745 10.337C7.80354 10.517 7.8098 10.7099 7.76307 10.8932C7.71634 11.0766 7.61853 11.243 7.481 11.373L7.381 11.455L4.562 13.503C4.676 14.413 4.942 15.274 5.335 16.062L5.488 16.354H8.973C9.16431 16.3539 9.35164 16.4087 9.51276 16.5118C9.67388 16.615 9.80203 16.7622 9.882 16.936L9.924 17.045L11.002 20.36C11.8693 20.525 12.758 20.5453 13.632 20.42L13.999 20.36L15.076 17.045C15.1351 16.8632 15.2451 16.7021 15.3929 16.5809C15.5407 16.4597 15.7201 16.3834 15.91 16.361L16.027 16.354H19.512C19.9422 15.5714 20.2382 14.7224 20.388 13.842L20.438 13.503L17.618 11.455C17.4648 11.3437 17.3464 11.1912 17.2764 11.0152C17.2065 10.8393 17.188 10.6471 17.223 10.461L17.255 10.337L18.332 7.024C17.7199 6.3711 17.0026 5.82552 16.21 5.41L15.908 5.26ZM11.912 8.691C12.0651 8.5797 12.2466 8.51413 12.4355 8.50192C12.6244 8.4897 12.8128 8.53134 12.979 8.622L13.088 8.691L15.941 10.764C16.094 10.8752 16.2124 11.0275 16.2823 11.2033C16.3522 11.3791 16.3708 11.5711 16.336 11.757L16.304 11.882L15.214 15.236C15.1549 15.4178 15.0449 15.5789 14.8971 15.7001C14.7493 15.8213 14.5699 15.8976 14.38 15.92L14.263 15.927H10.737C10.5457 15.9271 10.3584 15.8723 10.1972 15.7692C10.0361 15.666 9.90797 15.5188 9.828 15.345L9.786 15.236L8.696 11.882C8.63746 11.702 8.6312 11.5091 8.67793 11.3258C8.72466 11.1424 8.82247 10.976 8.96 10.846L9.06 10.764L11.912 8.691Z" fill="#D0EA23"/>
</svg>
