<svg width="36" height="36" viewBox="0 0 36 36" fill="none" xmlns="http://www.w3.org/2000/svg">
<path d="M18 3C26.2845 3 33 9.7155 33 18C33 26.2845 26.2845 33 18 33C9.7155 33 3 26.2845 3 18C3 9.7155 9.7155 3 18 3ZM23.112 7.14L18.882 10.2135C18.6524 10.3804 18.3801 10.4788 18.0967 10.4971C17.8134 10.5154 17.5307 10.453 17.2815 10.317L17.118 10.2135L12.888 7.14C11.6726 7.7132 10.5622 8.48645 9.603 9.4275L9.252 9.786L10.8675 14.7555C10.9553 15.0255 10.9647 15.3148 10.8946 15.5899C10.8245 15.8649 10.6778 16.1145 10.4715 16.3095L10.3215 16.4325L6.093 19.5045C6.264 20.8695 6.663 22.161 7.2525 23.343L7.482 23.781H12.7095C12.9965 23.7808 13.2775 23.863 13.5191 24.0177C13.7608 24.1725 13.953 24.3933 14.073 24.654L14.136 24.8175L15.753 29.79C17.054 30.0375 18.387 30.0679 19.698 29.88L20.2485 29.79L21.864 24.8175C21.9526 24.5448 22.1176 24.3032 22.3393 24.1214C22.561 23.9395 22.8302 23.8251 23.115 23.7915L23.2905 23.781H28.518C29.1632 22.6071 29.6074 21.3335 29.832 20.013L29.907 19.5045L25.677 16.4325C25.4472 16.2656 25.2695 16.0368 25.1646 15.7729C25.0598 15.5089 25.032 15.2206 25.0845 14.9415L25.1325 14.7555L26.748 9.786C25.8299 8.80664 24.7539 7.98828 23.565 7.365L23.112 7.14ZM17.118 12.2865C17.3476 12.1196 17.6199 12.0212 17.9033 12.0029C18.1866 11.9846 18.4693 12.047 18.7185 12.183L18.882 12.2865L23.1615 15.396C23.391 15.5628 23.5685 15.7913 23.6734 16.055C23.7783 16.3186 23.8062 16.6066 23.754 16.8855L23.706 17.073L22.071 22.104C21.9824 22.3767 21.8174 22.6183 21.5957 22.8001C21.374 22.982 21.1048 23.0964 20.82 23.13L20.6445 23.1405H15.3555C15.0685 23.1407 14.7875 23.0585 14.5459 22.9038C14.3042 22.749 14.112 22.5282 13.992 22.2675L13.929 22.104L12.294 17.073C12.2062 16.803 12.1968 16.5137 12.2669 16.2386C12.337 15.9636 12.4837 15.714 12.69 15.519L12.84 15.396L17.118 12.2865Z" fill="#FF6C6C"/>
</svg>
