<svg width="25" height="25" viewBox="0 0 25 25" fill="none" xmlns="http://www.w3.org/2000/svg">
<path d="M10.768 20.658C11.131 20.825 11.423 20.992 11.621 21.115C11.906 21.292 12.145 21.5 12.501 21.5C12.849 21.5 13.096 21.29 13.379 21.115C13.577 20.992 13.869 20.825 14.232 20.658C14.965 20.319 15.943 20 17 20C18.279 20 19.438 20.468 20.18 20.862C20.4141 20.9848 20.6752 21.0473 20.9395 21.0438C21.2039 21.0403 21.4632 20.9709 21.694 20.842C22.121 20.606 22.5 20.132 22.5 19.5V7C22.5 6.379 22.205 5.737 21.602 5.371C20.828 4.901 19.086 4 17 4C15.557 4 14.285 4.43 13.393 4.842C13.039 5.006 12.737 5.17 12.5 5.31C12.263 5.17 11.961 5.006 11.607 4.842C10.715 4.431 9.44299 4 7.99999 4C5.91399 4 4.17199 4.9 3.39799 5.371C3.12055 5.54205 2.89206 5.78194 2.73471 6.06738C2.57736 6.35281 2.4965 6.67409 2.49999 7V19.5C2.49999 20.133 2.87899 20.606 3.30599 20.842C3.72899 21.075 4.30199 21.137 4.82099 20.862C5.56199 20.468 6.72099 20 7.99999 20C9.05699 20 10.035 20.32 10.768 20.658Z" fill="#FF9CD4"/>
</svg>
