<svg width="36" height="36" viewBox="0 0 36 36" fill="none" xmlns="http://www.w3.org/2000/svg">
<path d="M31.1476 11.9731L31.1806 12.2581L31.1911 12.5491V23.4511C31.1909 24.0639 31.0406 24.6674 30.7532 25.2087C30.4658 25.75 30.0502 26.2126 29.5426 26.5561L29.3176 26.6986L19.8751 32.1496L19.6891 32.2501L19.5001 32.3401V18.8551L31.1476 11.9731ZM4.85258 11.9731L16.5001 18.8566V32.3386C16.3722 32.2815 16.2471 32.2184 16.1251 32.1496L6.68408 26.6986C6.11402 26.3695 5.64064 25.8961 5.31151 25.326C4.98238 24.756 4.8091 24.1093 4.80908 23.4511V12.5491C4.80908 12.3541 4.82408 12.1621 4.85408 11.9731H4.85258ZM19.8751 3.85058L29.3161 9.30158C29.3921 9.34658 29.4661 9.39258 29.5381 9.43958L18.0001 16.2601L6.46208 9.43808C6.53473 9.38994 6.60876 9.34392 6.68408 9.30008L16.1251 3.84908C16.6952 3.51995 17.3418 3.34668 18.0001 3.34668C18.6583 3.34668 19.305 3.52145 19.8751 3.85058Z" fill="#D1D5DA"/>
</svg>
