<svg width="36" height="36" viewBox="0 0 36 36" fill="none" xmlns="http://www.w3.org/2000/svg">
<path d="M31.1475 11.9731L31.1805 12.2581L31.191 12.5491V23.4511C31.1908 24.0639 31.0405 24.6674 30.7531 25.2087C30.4657 25.75 30.05 26.2126 29.5425 26.5561L29.3175 26.6986L19.875 32.1496L19.689 32.2501L19.5 32.3401V18.8551L31.1475 11.9731ZM4.85246 11.9731L16.5 18.8566V32.3386C16.3721 32.2815 16.247 32.2184 16.125 32.1496L6.68396 26.6986C6.1139 26.3695 5.64052 25.8961 5.31139 25.326C4.98226 24.756 4.80898 24.1093 4.80896 23.4511V12.5491C4.80896 12.3541 4.82396 12.1621 4.85396 11.9731H4.85246ZM19.875 3.85058L29.316 9.30158C29.392 9.34658 29.466 9.39258 29.538 9.43958L18 16.2601L6.46196 9.43808C6.53461 9.38994 6.60864 9.34392 6.68396 9.30008L16.125 3.84908C16.695 3.51995 17.3417 3.34668 18 3.34668C18.6582 3.34668 19.3049 3.52145 19.875 3.85058Z" fill="#161616"/>
</svg>
