<svg width="25" height="25" viewBox="0 0 25 25" fill="none" xmlns="http://www.w3.org/2000/svg">
<path fill-rule="evenodd" clip-rule="evenodd" d="M17.778 3.11281C17.8744 2.87694 18.0572 2.68678 18.2891 2.58116C18.521 2.47554 18.7845 2.46243 19.0257 2.5445C19.2669 2.62657 19.4677 2.79763 19.5871 3.02276C19.7065 3.24788 19.7354 3.51008 19.668 3.75581L19.63 3.86581L17.02 10.2858L17.677 10.4608C18.727 10.7418 19.601 11.5948 19.767 12.7588C19.909 13.7588 20.042 15.2788 19.859 16.8448C19.677 18.3968 19.169 20.1228 17.912 21.3908C17.45 21.8568 16.787 21.9308 16.339 21.9388C15.828 21.9468 15.239 21.8688 14.634 21.7488C13.418 21.5068 11.959 21.0588 10.58 20.5828L10.166 20.4378L9.35298 20.1438L8.57299 19.8528L7.83899 19.5698L6.86099 19.1818C6.30877 18.9608 5.75939 18.7328 5.21299 18.4978C5.05406 18.4289 4.91575 18.32 4.8116 18.1816C4.70745 18.0432 4.64104 17.8801 4.61886 17.7083C4.59668 17.5365 4.6195 17.3619 4.68508 17.2016C4.75067 17.0413 4.85677 16.9008 4.99299 16.7938C6.37099 15.7138 7.66299 14.4718 8.75499 13.3248L9.28299 12.7608C9.36965 12.6681 9.45332 12.5768 9.53399 12.4868L10.006 11.9598L10.226 11.7078L10.82 11.0128L11.157 10.6068C11.5099 10.1739 11.9731 9.84434 12.4979 9.65301C13.0226 9.46167 13.5893 9.41565 14.138 9.51981L14.337 9.56581L15.074 9.76281L17.778 3.11281ZM13.819 11.4978C13.6163 11.4473 13.4034 11.456 13.2055 11.523C13.0077 11.59 12.8332 11.7125 12.703 11.8758L12.46 12.1688L17.858 13.6148L17.811 13.2228L17.786 13.0408C17.75 12.7878 17.571 12.5498 17.276 12.4308L17.16 12.3928L13.819 11.4978ZM6.06499 8.21581L6.12899 8.35581C6.40168 8.9199 6.83114 9.39346 7.36599 9.71981L7.46599 9.77781C7.47637 9.78376 7.48501 9.79235 7.49101 9.80271C7.49701 9.81307 7.50018 9.82483 7.50018 9.83681C7.50018 9.84878 7.49701 9.86054 7.49101 9.8709C7.48501 9.88126 7.47637 9.88985 7.46599 9.89581L7.36599 9.95381C6.83123 10.2808 6.40209 10.7551 6.12999 11.3198L6.06599 11.4588C6.06044 11.4714 6.05134 11.4822 6.0398 11.4897C6.02826 11.4972 6.01477 11.5012 6.00099 11.5012C5.9872 11.5012 5.97371 11.4972 5.96217 11.4897C5.95063 11.4822 5.94153 11.4714 5.93599 11.4588L5.87199 11.3188C5.59929 10.7547 5.16983 10.2812 4.63499 9.95481L4.53499 9.89681C4.5246 9.89086 4.51596 9.88226 4.50996 9.8719C4.50396 9.86154 4.50079 9.84978 4.50079 9.83781C4.50079 9.82583 4.50396 9.81407 4.50996 9.80371C4.51596 9.79335 4.5246 9.78476 4.53499 9.77881L4.63499 9.72081C5.16937 9.39362 5.59815 8.91937 5.86999 8.35481L5.93399 8.21581C5.93953 8.20319 5.94863 8.19246 5.96017 8.18492C5.97171 8.17739 5.9852 8.17337 5.99899 8.17337C6.01277 8.17337 6.02626 8.17739 6.0378 8.18492C6.04934 8.19246 6.05944 8.20319 6.06499 8.21581ZM8.89699 3.35681C8.93699 3.26681 9.06298 3.26681 9.10298 3.35681L9.20499 3.57881C9.63985 4.47643 10.3237 5.23005 11.175 5.74981L11.332 5.84281C11.3489 5.85215 11.3629 5.86584 11.3727 5.88246C11.3825 5.89908 11.3877 5.91802 11.3877 5.93731C11.3877 5.9566 11.3825 5.97554 11.3727 5.99216C11.3629 6.00878 11.3489 6.02247 11.332 6.03181L11.174 6.12381C10.3226 6.64383 9.63869 7.39782 9.20399 8.29581L9.10399 8.51781C9.09517 8.53792 9.08069 8.55503 9.06231 8.56704C9.04393 8.57906 9.02244 8.58546 9.00048 8.58546C8.97853 8.58546 8.95704 8.57906 8.93866 8.56704C8.92028 8.55503 8.9058 8.53792 8.89699 8.51781L8.79499 8.29581C8.36028 7.39782 7.67642 6.64383 6.82499 6.12381L6.66699 6.03181C6.6501 6.02247 6.63603 6.00878 6.62624 5.99216C6.61644 5.97554 6.61127 5.9566 6.61127 5.93731C6.61127 5.91802 6.61644 5.89908 6.62624 5.88246C6.63603 5.86584 6.6501 5.85215 6.66699 5.84281L6.82599 5.74981C7.67727 5.23005 8.36112 4.47643 8.79598 3.57881L8.89599 3.35681H8.89699Z" fill="#FF9A6F"/>
</svg>
