<svg width="24" height="24" viewBox="0 0 24 24" fill="none" xmlns="http://www.w3.org/2000/svg">
<path fill-rule="evenodd" clip-rule="evenodd" d="M17.278 2.61281C17.3744 2.37694 17.5572 2.18678 17.7891 2.08116C18.021 1.97554 18.2845 1.96243 18.5257 2.0445C18.7669 2.12657 18.9677 2.29763 19.0871 2.52276C19.2065 2.74788 19.2354 3.01008 19.168 3.25581L19.13 3.36581L16.52 9.78581L17.177 9.96081C18.227 10.2418 19.101 11.0948 19.267 12.2588C19.409 13.2588 19.542 14.7788 19.359 16.3448C19.177 17.8968 18.669 19.6228 17.412 20.8908C16.95 21.3568 16.287 21.4308 15.839 21.4388C15.328 21.4468 14.739 21.3688 14.134 21.2488C12.918 21.0068 11.459 20.5588 10.08 20.0828L9.66599 19.9378L8.85298 19.6438L8.07299 19.3528L7.33899 19.0698L6.36099 18.6818C5.80877 18.4608 5.25939 18.2328 4.71299 17.9978C4.55406 17.9289 4.41575 17.82 4.3116 17.6816C4.20745 17.5432 4.14104 17.3801 4.11886 17.2083C4.09668 17.0365 4.1195 16.8619 4.18508 16.7016C4.25067 16.5413 4.35677 16.4008 4.49299 16.2938C5.87099 15.2138 7.16299 13.9718 8.25499 12.8248L8.78299 12.2608C8.86965 12.1681 8.95332 12.0768 9.03399 11.9868L9.50598 11.4598L9.72599 11.2078L10.32 10.5128L10.657 10.1068C11.0099 9.67389 11.4731 9.34434 11.9979 9.15301C12.5226 8.96167 13.0893 8.91565 13.638 9.01981L13.837 9.06581L14.574 9.26281L17.278 2.61281ZM13.319 10.9978C13.1163 10.9473 12.9034 10.956 12.7055 11.023C12.5077 11.09 12.3332 11.2125 12.203 11.3758L11.96 11.6688L17.358 13.1148L17.311 12.7228L17.286 12.5408C17.25 12.2878 17.071 12.0498 16.776 11.9308L16.66 11.8928L13.319 10.9978ZM5.56499 7.71581L5.62899 7.85581C5.90168 8.4199 6.33114 8.89346 6.86599 9.21981L6.96599 9.27781C6.97637 9.28376 6.98501 9.29235 6.99101 9.30271C6.99701 9.31307 7.00018 9.32483 7.00018 9.33681C7.00018 9.34878 6.99701 9.36054 6.99101 9.3709C6.98501 9.38126 6.97637 9.38985 6.96599 9.39581L6.86599 9.45381C6.33123 9.78084 5.90209 10.2551 5.62999 10.8198L5.56599 10.9588C5.56044 10.9714 5.55134 10.9822 5.5398 10.9897C5.52826 10.9972 5.51477 11.0012 5.50099 11.0012C5.4872 11.0012 5.47371 10.9972 5.46217 10.9897C5.45063 10.9822 5.44153 10.9714 5.43599 10.9588L5.37199 10.8188C5.09929 10.2547 4.66983 9.78116 4.13499 9.45481L4.03499 9.39681C4.0246 9.39086 4.01596 9.38226 4.00996 9.3719C4.00396 9.36154 4.00079 9.34978 4.00079 9.33781C4.00079 9.32583 4.00396 9.31407 4.00996 9.30371C4.01596 9.29335 4.0246 9.28476 4.03499 9.27881L4.13499 9.22081C4.66937 8.89362 5.09815 8.41937 5.36999 7.85481L5.43399 7.71581C5.43953 7.70319 5.44863 7.69246 5.46017 7.68492C5.47171 7.67739 5.4852 7.67337 5.49899 7.67337C5.51277 7.67337 5.52626 7.67739 5.5378 7.68492C5.54934 7.69246 5.55944 7.70319 5.56499 7.71581ZM8.39699 2.85681C8.43699 2.76681 8.56298 2.76681 8.60298 2.85681L8.70499 3.07881C9.13985 3.97643 9.8237 4.73005 10.675 5.24981L10.832 5.34281C10.8489 5.35215 10.8629 5.36584 10.8727 5.38246C10.8825 5.39908 10.8877 5.41802 10.8877 5.43731C10.8877 5.4566 10.8825 5.47554 10.8727 5.49216C10.8629 5.50878 10.8489 5.52247 10.832 5.53181L10.674 5.62381C9.82255 6.14383 9.13869 6.89782 8.70399 7.79581L8.60399 8.01781C8.59517 8.03792 8.58069 8.05503 8.56231 8.06704C8.54393 8.07906 8.52244 8.08546 8.50048 8.08546C8.47853 8.08546 8.45704 8.07906 8.43866 8.06704C8.42028 8.05503 8.4058 8.03792 8.39699 8.01781L8.29499 7.79581C7.86028 6.89782 7.17642 6.14383 6.32499 5.62381L6.16699 5.53181C6.1501 5.52247 6.13603 5.50878 6.12624 5.49216C6.11644 5.47554 6.11127 5.4566 6.11127 5.43731C6.11127 5.41802 6.11644 5.39908 6.12624 5.38246C6.13603 5.36584 6.1501 5.35215 6.16699 5.34281L6.32599 5.24981C7.17727 4.73005 7.86112 3.97643 8.29598 3.07881L8.39599 2.85681H8.39699Z" fill="#161616"/>
</svg>
