<svg width="36" height="36" viewBox="0 0 36 36" fill="none" xmlns="http://www.w3.org/2000/svg">
<path fill-rule="evenodd" clip-rule="evenodd" d="M25.917 3.9197C26.0616 3.5659 26.3359 3.28067 26.6837 3.12223C27.0315 2.9638 27.4267 2.94413 27.7886 3.06724C28.1504 3.19034 28.4516 3.44694 28.6307 3.78462C28.8098 4.12231 28.8531 4.51561 28.752 4.8842L28.695 5.0492L24.78 14.6792L25.7655 14.9417C27.3405 15.3632 28.6515 16.6427 28.9005 18.3887C29.1135 19.8887 29.313 22.1687 29.0385 24.5177C28.7655 26.8457 28.0035 29.4347 26.118 31.3367C25.425 32.0357 24.4305 32.1467 23.7585 32.1587C22.992 32.1707 22.1085 32.0537 21.201 31.8737C19.377 31.5107 17.1885 30.8387 15.12 30.1247L14.499 29.9072L13.2795 29.4662L12.1095 29.0297L11.0085 28.6052L9.54151 28.0232C8.71318 27.6917 7.88912 27.3497 7.06951 26.9972C6.83112 26.8939 6.62366 26.7304 6.46743 26.5228C6.31121 26.3152 6.21159 26.0706 6.17832 25.813C6.14505 25.5553 6.17928 25.2934 6.27766 25.0529C6.37603 24.8125 6.53518 24.6017 6.73951 24.4412C8.80651 22.8212 10.7445 20.9582 12.3825 19.2377L13.1745 18.3917C13.3045 18.2527 13.43 18.1157 13.551 17.9807L14.259 17.1902L14.589 16.8122L15.48 15.7697L15.9855 15.1607C16.5148 14.5113 17.2098 14.017 17.9968 13.73C18.7839 13.443 19.6339 13.374 20.457 13.5302L20.7555 13.5992L21.861 13.8947L25.917 3.9197ZM19.9785 16.4972C19.6745 16.4214 19.3551 16.4345 19.0583 16.535C18.7615 16.6355 18.4999 16.8192 18.3045 17.0642L17.94 17.5037L26.037 19.6727L25.9665 19.0847L25.929 18.8117C25.875 18.4322 25.6065 18.0752 25.164 17.8967L24.99 17.8397L19.9785 16.4972ZM8.34751 11.5742L8.44351 11.7842C8.85255 12.6303 9.49675 13.3407 10.299 13.8302L10.449 13.9172C10.4646 13.9261 10.4775 13.939 10.4865 13.9546C10.4956 13.9701 10.5003 13.9877 10.5003 14.0057C10.5003 14.0237 10.4956 14.0413 10.4865 14.0568C10.4775 14.0724 10.4646 14.0853 10.449 14.0942L10.299 14.1812C9.49687 14.6718 8.85317 15.3832 8.44501 16.2302L8.34901 16.4387C8.34069 16.4576 8.32704 16.4737 8.30973 16.485C8.29241 16.4963 8.27218 16.5024 8.25151 16.5024C8.23083 16.5024 8.2106 16.4963 8.19329 16.485C8.17598 16.4737 8.16233 16.4576 8.15401 16.4387L8.05801 16.2287C7.64897 15.3826 7.00477 14.6722 6.20251 14.1827L6.05251 14.0957C6.03692 14.0868 6.02398 14.0739 6.01497 14.0583C6.00596 14.0428 6.00122 14.0252 6.00122 14.0072C6.00122 13.9892 6.00596 13.9716 6.01497 13.9561C6.02398 13.9405 6.03692 13.9276 6.05251 13.9187L6.20251 13.8317C7.00409 13.3409 7.64726 12.6295 8.05501 11.7827L8.15101 11.5742C8.15933 11.5553 8.17298 11.5392 8.19029 11.5279C8.2076 11.5166 8.22783 11.5105 8.24851 11.5105C8.26918 11.5105 8.28941 11.5166 8.30673 11.5279C8.32404 11.5392 8.33919 11.5553 8.34751 11.5742ZM12.5955 4.2857C12.6555 4.1507 12.8445 4.1507 12.9045 4.2857L13.0575 4.6187C13.7098 5.96514 14.7356 7.09556 16.0125 7.8752L16.248 8.0147C16.2733 8.02871 16.2944 8.04925 16.3091 8.07417C16.3238 8.0991 16.3316 8.12751 16.3316 8.15645C16.3316 8.18539 16.3238 8.2138 16.3091 8.23873C16.2944 8.26365 16.2733 8.28419 16.248 8.2982L16.011 8.4362C14.7339 9.21624 13.7081 10.3472 13.056 11.6942L12.906 12.0272C12.8928 12.0574 12.8711 12.083 12.8435 12.1011C12.8159 12.1191 12.7837 12.1287 12.7508 12.1287C12.7178 12.1287 12.6856 12.1191 12.658 12.1011C12.6305 12.083 12.6087 12.0574 12.5955 12.0272L12.4425 11.6942C11.7904 10.3472 10.7647 9.21624 9.48751 8.4362L9.25051 8.2982C9.22519 8.28419 9.20408 8.26365 9.18938 8.23873C9.17469 8.2138 9.16694 8.18539 9.16694 8.15645C9.16694 8.12751 9.17469 8.0991 9.18938 8.07417C9.20408 8.04925 9.22519 8.02871 9.25051 8.0147L9.48901 7.8752C10.7659 7.09556 11.7917 5.96514 12.444 4.6187L12.594 4.2857H12.5955Z" fill="#FBAB89"/>
</svg>
