<svg width="25" height="25" viewBox="0 0 25 25" fill="none" xmlns="http://www.w3.org/2000/svg">
<path fill-rule="evenodd" clip-rule="evenodd" d="M19.43 5.5C19.8901 5.49992 20.344 5.60568 20.7567 5.80907C21.1694 6.01247 21.5298 6.30807 21.81 6.673L21.926 6.836L22.996 8.441C23.2829 8.87121 23.4538 9.36829 23.492 9.884L23.5 10.106V16.5C23.5002 17.0046 23.3096 17.4906 22.9665 17.8605C22.6234 18.2305 22.1532 18.4572 21.65 18.495L21.5 18.5H21.33C21.1284 19.0703 20.7592 19.5663 20.2707 19.9231C19.7823 20.2799 19.1974 20.4808 18.5929 20.4994C17.9883 20.518 17.3922 20.3534 16.8827 20.0273C16.3733 19.7012 15.9743 19.2288 15.738 18.672L15.67 18.5H9.329C9.12722 19.07 8.75797 19.5657 8.26964 19.9222C7.78131 20.2788 7.19667 20.4795 6.59232 20.4981C5.98797 20.5167 5.3921 20.3523 4.88278 20.0264C4.37345 19.7006 3.97444 19.2285 3.738 18.672L3.67 18.5H3.5C2.99542 18.5002 2.50943 18.3096 2.13945 17.9665C1.76947 17.6234 1.54284 17.1532 1.505 16.65L1.5 16.5V8.5C1.49996 7.73479 1.79233 6.99849 2.31728 6.44174C2.84224 5.88499 3.56011 5.54989 4.324 5.505L4.5 5.5H19.43ZM18.5 16.5C18.2348 16.5 17.9804 16.6054 17.7929 16.7929C17.6054 16.9804 17.5 17.2348 17.5 17.5C17.5 17.7652 17.6054 18.0196 17.7929 18.2071C17.9804 18.3946 18.2348 18.5 18.5 18.5C18.7652 18.5 19.0196 18.3946 19.2071 18.2071C19.3946 18.0196 19.5 17.7652 19.5 17.5C19.5 17.2348 19.3946 16.9804 19.2071 16.7929C19.0196 16.6054 18.7652 16.5 18.5 16.5ZM6.5 16.5C6.23478 16.5 5.98043 16.6054 5.79289 16.7929C5.60536 16.9804 5.5 17.2348 5.5 17.5C5.5 17.7652 5.60536 18.0196 5.79289 18.2071C5.98043 18.3946 6.23478 18.5 6.5 18.5C6.76522 18.5 7.01957 18.3946 7.20711 18.2071C7.39464 18.0196 7.5 17.7652 7.5 17.5C7.5 17.2348 7.39464 16.9804 7.20711 16.7929C7.01957 16.6054 6.76522 16.5 6.5 16.5ZM19.43 7.5H18.5V11.5H21.5V10.106C21.5 9.90847 21.4416 9.71535 21.332 9.551L20.262 7.945C20.1707 7.80808 20.0469 7.69583 19.9018 7.61821C19.7566 7.54058 19.5946 7.49998 19.43 7.5ZM6.5 7.5H4.5C4.25507 7.50003 4.01866 7.58996 3.83563 7.75272C3.65259 7.91547 3.53566 8.13975 3.507 8.383L3.5 8.5V10.5H6.5V7.5ZM11.5 7.5H8.5V10.5H11.5V7.5ZM16.5 7.5H13.5V10.5H16.5V7.5Z" fill="#77BBFF"/>
</svg>
