<svg width="18" height="18" viewBox="0 0 18 18" fill="none" xmlns="http://www.w3.org/2000/svg">
<path fill-rule="evenodd" clip-rule="evenodd" d="M12 2.25C12.1989 2.25 12.3897 2.32902 12.5303 2.46967C12.671 2.61032 12.75 2.80109 12.75 3V3.75H14.25C14.6478 3.75 15.0294 3.90804 15.3107 4.18934C15.592 4.47064 15.75 4.85218 15.75 5.25V14.25C15.75 14.6478 15.592 15.0294 15.3107 15.3107C15.0294 15.592 14.6478 15.75 14.25 15.75H3.75C3.35218 15.75 2.97064 15.592 2.68934 15.3107C2.40804 15.0294 2.25 14.6478 2.25 14.25V5.25C2.25 4.85218 2.40804 4.47064 2.68934 4.18934C2.97064 3.90804 3.35218 3.75 3.75 3.75H5.25V3C5.25 2.80109 5.32902 2.61032 5.46967 2.46967C5.61032 2.32902 5.80109 2.25 6 2.25C6.19891 2.25 6.38968 2.32902 6.53033 2.46967C6.67098 2.61032 6.75 2.80109 6.75 3V3.75H11.25V3C11.25 2.80109 11.329 2.61032 11.4697 2.46967C11.6103 2.32902 11.8011 2.25 12 2.25ZM6.0075 12H6C5.80884 12.0002 5.62498 12.0734 5.48597 12.2046C5.34697 12.3359 5.26332 12.5152 5.25212 12.706C5.24092 12.8969 5.30301 13.0848 5.4257 13.2314C5.54839 13.378 5.72243 13.4722 5.91225 13.4948L6.0075 13.5C6.20641 13.5 6.39718 13.421 6.53783 13.2803C6.67848 13.1397 6.7575 12.9489 6.7575 12.75C6.7575 12.5511 6.67848 12.3603 6.53783 12.2197C6.39718 12.079 6.20641 12 6.0075 12ZM9.0075 12H9C8.80884 12.0002 8.62498 12.0734 8.48597 12.2046C8.34697 12.3359 8.26332 12.5152 8.25212 12.706C8.24092 12.8969 8.30301 13.0848 8.4257 13.2314C8.54839 13.378 8.72243 13.4722 8.91225 13.4948L9.0075 13.5C9.20641 13.5 9.39718 13.421 9.53783 13.2803C9.67848 13.1397 9.7575 12.9489 9.7575 12.75C9.7575 12.5511 9.67848 12.3603 9.53783 12.2197C9.39718 12.079 9.20641 12 9.0075 12ZM12.0075 12H12C11.8088 12.0002 11.625 12.0734 11.486 12.2046C11.347 12.3359 11.2633 12.5152 11.2521 12.706C11.2409 12.8969 11.303 13.0848 11.4257 13.2314C11.5484 13.378 11.7224 13.4722 11.9123 13.4948L12.0075 13.5C12.2064 13.5 12.3972 13.421 12.5378 13.2803C12.6785 13.1397 12.7575 12.9489 12.7575 12.75C12.7575 12.5511 12.6785 12.3603 12.5378 12.2197C12.3972 12.079 12.2064 12 12.0075 12ZM6.0075 9H6C5.80884 9.00021 5.62498 9.07341 5.48597 9.20464C5.34697 9.33586 5.26332 9.51521 5.25212 9.70605C5.24092 9.89688 5.30301 10.0848 5.4257 10.2314C5.54839 10.378 5.72243 10.4722 5.91225 10.4948L6.0075 10.5C6.20641 10.5 6.39718 10.421 6.53783 10.2803C6.67848 10.1397 6.7575 9.94891 6.7575 9.75C6.7575 9.55109 6.67848 9.36032 6.53783 9.21967C6.39718 9.07902 6.20641 9 6.0075 9ZM9.0075 9H9C8.80884 9.00021 8.62498 9.07341 8.48597 9.20464C8.34697 9.33586 8.26332 9.51521 8.25212 9.70605C8.24092 9.89688 8.30301 10.0848 8.4257 10.2314C8.54839 10.378 8.72243 10.4722 8.91225 10.4948L9.0075 10.5C9.20641 10.5 9.39718 10.421 9.53783 10.2803C9.67848 10.1397 9.7575 9.94891 9.7575 9.75C9.7575 9.55109 9.67848 9.36032 9.53783 9.21967C9.39718 9.07902 9.20641 9 9.0075 9ZM12.0075 9H12C11.8088 9.00021 11.625 9.07341 11.486 9.20464C11.347 9.33586 11.2633 9.51521 11.2521 9.70605C11.2409 9.89688 11.303 10.0848 11.4257 10.2314C11.5484 10.378 11.7224 10.4722 11.9123 10.4948L12.0075 10.5C12.2064 10.5 12.3972 10.421 12.5378 10.2803C12.6785 10.1397 12.7575 9.94891 12.7575 9.75C12.7575 9.55109 12.6785 9.36032 12.5378 9.21967C12.3972 9.07902 12.2064 9 12.0075 9ZM14.25 5.25H3.75V6.75H14.25V5.25Z" fill="#161616"/>
</svg>
