<svg width="25" height="24" viewBox="0 0 25 24" fill="none" xmlns="http://www.w3.org/2000/svg">
<path d="M12.6667 2C14.3241 2 15.9407 2.51481 17.2929 3.47328C18.6451 4.43175 19.6662 5.78655 20.2152 7.35047C20.7641 8.91439 20.8137 10.6102 20.3572 12.2035C19.9007 13.7969 18.9605 15.2091 17.6667 16.245V20.855C17.6666 21.0327 17.6236 21.2078 17.5411 21.3652C17.4587 21.5227 17.3394 21.6578 17.1933 21.759C17.0472 21.8602 16.8788 21.9246 16.7025 21.9465C16.5261 21.9685 16.3471 21.9474 16.1807 21.885L12.6667 20.569L9.15266 21.887C8.98617 21.9494 8.80703 21.9705 8.6306 21.9485C8.45416 21.9265 8.28569 21.8621 8.13961 21.7607C7.99353 21.6594 7.87419 21.5241 7.79182 21.3666C7.70945 21.209 7.6665 21.0338 7.66666 20.856V16.246C6.37241 15.2102 5.43189 13.7979 4.97511 12.2044C4.51833 10.6109 4.56786 8.91479 5.11684 7.35064C5.66582 5.78648 6.68714 4.43148 8.03963 3.47297C9.39211 2.51445 11.009 1.99974 12.6667 2ZM12.6667 4C11.0754 4 9.54924 4.63214 8.42402 5.75736C7.2988 6.88258 6.66666 8.4087 6.66666 10C6.66666 11.5913 7.2988 13.1174 8.42402 14.2426C9.54924 15.3679 11.0754 16 12.6667 16C14.258 16 15.7841 15.3679 16.9093 14.2426C18.0345 13.1174 18.6667 11.5913 18.6667 10C18.6667 8.4087 18.0345 6.88258 16.9093 5.75736C15.7841 4.63214 14.258 4 12.6667 4ZM12.6667 6C13.7275 6 14.7449 6.42143 15.4951 7.17157C16.2452 7.92172 16.6667 8.93913 16.6667 10C16.6667 11.0609 16.2452 12.0783 15.4951 12.8284C14.7449 13.5786 13.7275 14 12.6667 14C11.6058 14 10.5884 13.5786 9.83823 12.8284C9.08809 12.0783 8.66666 11.0609 8.66666 10C8.66666 8.93913 9.08809 7.92172 9.83823 7.17157C10.5884 6.42143 11.6058 6 12.6667 6Z" fill="#4672FF"/>
</svg>
