<svg width="36" height="36" viewBox="0 0 36 36" fill="none" xmlns="http://www.w3.org/2000/svg">
<path d="M25.5224 4.58265C25.8329 4.36116 26.216 4.26622 26.594 4.31715C26.9719 4.36808 27.3162 4.56105 27.557 4.85681C27.7977 5.15257 27.9168 5.52892 27.8899 5.90933C27.8631 6.28974 27.6923 6.64563 27.4124 6.90465L27.2654 7.02315L24.1139 9.27465C23.6611 9.59686 23.3088 10.0408 23.098 10.5551C22.8872 11.0693 22.8265 11.6328 22.9229 12.1801L22.9709 12.4081L27.9854 7.39365C28.2554 7.12463 28.6176 6.96844 28.9985 6.95681C29.3794 6.94517 29.7505 7.07897 30.0363 7.33102C30.3222 7.58307 30.5014 7.93448 30.5375 8.31386C30.5737 8.69325 30.464 9.07216 30.2309 9.37365L30.1064 9.51465L25.0919 14.5291C26.1494 14.7991 27.3194 14.4691 28.0709 13.5841L28.2254 13.3861L30.4769 10.2346C30.699 9.92542 31.0304 9.71223 31.4039 9.63829C31.7774 9.56435 32.165 9.6352 32.4882 9.83647C32.8114 10.0377 33.0459 10.3544 33.1443 10.7222C33.2427 11.09 33.1975 11.4814 33.0179 11.8171L32.9174 11.9776L30.6674 15.1306C29.8343 16.2954 28.6093 17.1209 27.217 17.4559C25.8246 17.7909 24.3582 17.613 23.0864 16.9546L22.8164 16.8046L19.3709 20.2486L25.6064 26.4856C25.8647 26.7439 26.0198 27.0876 26.0428 27.4521C26.0657 27.8167 25.9548 28.177 25.7309 28.4656L25.6064 28.6066C25.3481 28.8649 25.0045 29.0201 24.64 29.043C24.2754 29.0659 23.915 28.955 23.6264 28.7311L23.4854 28.6066L17.2499 22.3696L11.0144 28.6066C10.7561 28.8649 10.4125 29.0201 10.048 29.043C9.68341 29.0659 9.32303 28.955 9.03443 28.7311L8.89343 28.6066C8.63516 28.3484 8.48002 28.0047 8.4571 27.6402C8.43417 27.2756 8.54505 26.9153 8.76893 26.6266L8.89343 26.4856L15.1289 20.2486L12.7139 17.8336C12.0787 18.1774 11.3925 18.4169 10.6814 18.5431L10.3064 18.5986C9.40899 18.712 8.49747 18.6152 7.64387 18.3159C6.79026 18.0165 6.01795 17.5228 5.38793 16.8736C3.99443 15.4786 3.19793 13.7251 2.99993 12.0406C2.80493 10.3831 3.17993 8.60715 4.39493 7.39365C5.60843 6.17865 7.38293 5.80365 9.04043 5.99865C10.7249 6.19815 12.4799 6.99465 13.8734 8.38815C14.5223 9.01801 15.0159 9.79007 15.3153 10.6434C15.6147 11.4967 15.7116 12.4079 15.5984 13.3051C15.5084 14.0626 15.2879 14.7811 14.9894 15.4066L14.8334 15.7126L17.2484 18.1276L20.6954 14.6836C19.9737 13.4502 19.7196 11.9983 19.9796 10.593C20.2395 9.18773 20.9962 7.92281 22.1114 7.02915L22.3694 6.83415L25.5224 4.58265Z" fill="#FFBB4D"/>
</svg>
