<svg width="25" height="25" viewBox="0 0 25 25" fill="none" xmlns="http://www.w3.org/2000/svg">
<path d="M11.256 6.6702L18.326 13.7412L11.153 20.9152C10.821 21.2472 10.3827 21.4518 9.915 21.4932L9.739 21.5002H4.506C4.25718 21.5002 4.01711 21.4084 3.83183 21.2423C3.64655 21.0762 3.5291 20.8475 3.502 20.6002L3.496 20.4902V15.2572C3.49612 14.7877 3.66144 14.3331 3.963 13.9732L4.083 13.8432L11.256 6.6702ZM14.396 3.5302C14.7499 3.17625 15.2237 2.96787 15.7237 2.94621C16.2238 2.92455 16.7138 3.09118 17.097 3.4132L17.224 3.5302L21.467 7.7732C21.8207 8.12706 22.0289 8.60062 22.0505 9.10045C22.0722 9.60028 21.9057 10.0901 21.584 10.4732L21.467 10.6012L19.741 12.3272L12.671 5.2562L14.396 3.5302Z" fill="#FFD45D"/>
</svg>
