<svg width="24" height="24" viewBox="0 0 24 24" fill="none" xmlns="http://www.w3.org/2000/svg">
<path d="M10.756 6.1702L17.826 13.2412L10.653 20.4152C10.321 20.7472 9.88272 20.9518 9.415 20.9932L9.239 21.0002H4.006C3.75718 21.0002 3.51711 20.9084 3.33183 20.7423C3.14655 20.5762 3.0291 20.3475 3.002 20.1002L2.996 19.9902V14.7572C2.99612 14.2877 3.16144 13.8331 3.463 13.4732L3.583 13.3432L10.756 6.1702ZM13.896 3.0302C14.2499 2.67625 14.7237 2.46787 15.2237 2.44621C15.7238 2.42455 16.2138 2.59118 16.597 2.9132L16.724 3.0302L20.967 7.2732C21.3207 7.62706 21.5289 8.10062 21.5505 8.60045C21.5722 9.10028 21.4057 9.59007 21.084 9.9732L20.967 10.1012L19.241 11.8272L12.171 4.7562L13.896 3.0302Z" fill="#161616"/>
</svg>
