<svg width="25" height="24" viewBox="0 0 25 24" fill="none" xmlns="http://www.w3.org/2000/svg">
<path d="M12.3334 2C17.8564 2 22.3334 6.477 22.3334 12C22.3334 17.523 17.8564 22 12.3334 22C6.81037 22 2.33337 17.523 2.33337 12C2.33337 6.477 6.81037 2 12.3334 2ZM12.3334 4C10.2116 4 8.17681 4.84285 6.67652 6.34315C5.17623 7.84344 4.33337 9.87827 4.33337 12C4.33337 14.1217 5.17623 16.1566 6.67652 17.6569C8.17681 19.1571 10.2116 20 12.3334 20C14.4551 20 16.4899 19.1571 17.9902 17.6569C19.4905 16.1566 20.3334 14.1217 20.3334 12C20.3334 9.87827 19.4905 7.84344 17.9902 6.34315C16.4899 4.84285 14.4551 4 12.3334 4ZM17.2834 7.05C17.6784 7.446 17.6804 8.03 17.6194 8.56L17.5824 8.843C17.4224 9.963 16.9774 11.618 16.3404 12.999C16.0304 13.671 15.6404 14.35 15.1614 14.829C14.6834 15.306 14.0054 15.697 13.3314 16.007C11.9514 16.644 10.2964 17.089 9.17637 17.249L8.89437 17.286C8.36437 17.346 7.77637 17.342 7.38437 16.95C7.02737 16.593 6.99137 16.075 7.03337 15.585L7.06537 15.295L7.08437 15.157C7.24437 14.037 7.68937 12.382 8.32637 11.001C8.63637 10.329 9.02637 9.65 9.50537 9.171C9.98337 8.693 10.6624 8.303 11.3354 7.993C12.7154 7.356 14.3704 6.911 15.4904 6.751L15.7724 6.714C16.3024 6.654 16.8874 6.654 17.2824 7.05H17.2834ZM15.5714 8.762C14.6634 8.917 13.2484 9.312 12.1714 9.809C11.5744 10.085 11.1484 10.357 10.9194 10.586C10.6904 10.815 10.4184 11.241 10.1424 11.838C9.64637 12.915 9.25037 14.33 9.09537 15.238C10.0034 15.083 11.4184 14.688 12.4954 14.191C13.0924 13.915 13.5184 13.643 13.7474 13.414C13.9764 13.185 14.2494 12.759 14.5244 12.162C15.0204 11.085 15.4174 9.67 15.5714 8.762ZM12.3334 11C12.5986 11 12.8529 11.1054 13.0405 11.2929C13.228 11.4804 13.3334 11.7348 13.3334 12C13.3334 12.2652 13.228 12.5196 13.0405 12.7071C12.8529 12.8946 12.5986 13 12.3334 13C12.0682 13 11.8138 12.8946 11.6263 12.7071C11.4387 12.5196 11.3334 12.2652 11.3334 12C11.3334 11.7348 11.4387 11.4804 11.6263 11.2929C11.8138 11.1054 12.0682 11 12.3334 11Z" fill="#AEB3B9"/>
</svg>
