<svg width="25" height="24" viewBox="0 0 25 24" fill="none" xmlns="http://www.w3.org/2000/svg">
<path d="M12.3334 2C17.8564 2 22.3334 6.477 22.3334 12C22.3334 17.523 17.8564 22 12.3334 22C6.81037 22 2.33337 17.523 2.33337 12C2.33337 6.477 6.81037 2 12.3334 2ZM16.5764 7.757C16.2224 7.404 11.6264 8.464 10.2124 9.879C8.79837 11.293 7.73737 15.889 8.09037 16.243C8.44437 16.596 13.0404 15.536 14.4544 14.121C15.8694 12.707 16.9294 8.111 16.5764 7.757ZM12.3334 11C12.5986 11 12.8529 11.1054 13.0405 11.2929C13.228 11.4804 13.3334 11.7348 13.3334 12C13.3334 12.2652 13.228 12.5196 13.0405 12.7071C12.8529 12.8946 12.5986 13 12.3334 13C12.0682 13 11.8138 12.8946 11.6263 12.7071C11.4387 12.5196 11.3334 12.2652 11.3334 12C11.3334 11.7348 11.4387 11.4804 11.6263 11.2929C11.8138 11.1054 12.0682 11 12.3334 11Z" fill="#4672FF"/>
</svg>
