<svg width="49" height="48" viewBox="0 0 49 48" fill="none" xmlns="http://www.w3.org/2000/svg">
<path d="M24.4999 6.80371C28.9598 3.73385 34.1179 3.90225 38.243 6.30566C42.9212 9.03217 46.1376 14.5096 45.996 20.8193V20.8203C45.8428 27.5936 41.1674 33.2683 36.4725 37.1318C34.0922 39.0906 31.6233 40.6542 29.5419 41.7344C28.5016 42.2742 27.5406 42.7028 26.7206 43C25.9498 43.2794 25.1521 43.5 24.4999 43.5C23.8477 43.5 23.05 43.2793 22.2792 43C21.4591 42.7028 20.4982 42.2742 19.4579 41.7344C17.3762 40.6542 14.9068 39.0907 12.5262 37.1318C7.83106 33.2683 3.15671 27.5929 3.00476 20.8193C2.86309 14.5092 6.07926 9.03497 10.7567 6.30664L10.7577 6.30566C14.8821 3.90478 20.0397 3.734 24.4999 6.80371Z" fill="#4672FF" stroke="white" stroke-width="3"/>
</svg>
