<svg width="36" height="36" viewBox="0 0 36 36" fill="none" xmlns="http://www.w3.org/2000/svg">
<path fill-rule="evenodd" clip-rule="evenodd" d="M20.361 4.70712C20.0899 4.6593 19.811 4.68624 19.554 4.78505C19.2971 4.88387 19.0719 5.05082 18.9028 5.26796C18.7336 5.48511 18.6267 5.74425 18.5938 6.01755C18.5608 6.29084 18.6029 6.56795 18.7155 6.81912C19.4629 8.48396 19.6865 10.3367 19.3567 12.1315C19.0269 13.9264 18.1593 15.5786 16.8689 16.869C15.5785 18.1594 13.9263 19.027 12.1314 19.3568C10.3366 19.6866 8.48388 19.463 6.81904 18.7156C6.56781 18.6026 6.29051 18.5602 6.01698 18.593C5.74345 18.6258 5.48404 18.7325 5.26667 18.9018C5.04929 19.071 4.88218 19.2963 4.7833 19.5535C4.68443 19.8106 4.65755 20.0898 4.70554 20.3611C5.29265 23.6875 7.10541 26.6729 9.786 28.7281C12.4666 30.7833 15.8203 31.759 19.185 31.4625C22.5498 31.166 25.6811 29.6189 27.961 27.1266C30.2409 24.6343 31.5037 21.3779 31.5 18.0001C31.5003 14.829 30.3842 11.759 28.3474 9.32835C26.3107 6.89775 23.4833 5.26172 20.361 4.70712Z" fill="#161616"/>
</svg>
