<svg width="29" height="32" viewBox="0 0 29 32" fill="none" xmlns="http://www.w3.org/2000/svg">
<path fill-rule="evenodd" clip-rule="evenodd" d="M15.8895 30.887L15.873 30.89L15.7665 30.9425L15.7365 30.9485L15.7155 30.9425L15.609 30.89C15.593 30.885 15.581 30.8875 15.573 30.8975L15.567 30.9125L15.5415 31.5545L15.549 31.5845L15.564 31.604L15.72 31.715L15.7425 31.721L15.7605 31.715L15.9165 31.604L15.9345 31.58L15.9405 31.5545L15.915 30.914C15.911 30.898 15.9025 30.889 15.8895 30.887ZM16.287 30.7175L16.2675 30.7205L15.99 30.86L15.975 30.875L15.9705 30.8915L15.9975 31.5365L16.005 31.5545L16.017 31.565L16.3185 31.7045C16.3375 31.7095 16.352 31.7055 16.362 31.6925L16.368 31.6715L16.317 30.7505C16.312 30.7325 16.302 30.7215 16.287 30.7175ZM15.2145 30.7205C15.2079 30.7165 15.2 30.7152 15.1925 30.7169C15.1849 30.7186 15.1783 30.7231 15.174 30.7295L15.165 30.7505L15.114 31.6715C15.115 31.6895 15.1235 31.7015 15.1395 31.7075L15.162 31.7045L15.4635 31.565L15.4785 31.553L15.4845 31.5365L15.51 30.8915L15.5055 30.8735L15.4905 30.8585L15.2145 30.7205Z" fill="#E28DFF"/>
<path fill-rule="evenodd" clip-rule="evenodd" d="M25.0065 0.811987C25.4362 0.740326 25.8764 0.763106 26.2964 0.878741C26.7164 0.994377 27.1061 1.20009 27.4386 1.48159C27.7711 1.76309 28.0382 2.11362 28.2215 2.50881C28.4048 2.90399 28.4999 3.33436 28.5 3.76999V21.5C28.4997 22.8207 28.0636 24.1045 27.2594 25.1521C26.4552 26.1998 25.3278 26.9528 24.052 27.2945C22.7762 27.6361 21.4233 27.5472 20.2031 27.0416C18.983 26.536 17.9638 25.6419 17.3035 24.4981C16.6433 23.3542 16.3789 22.0244 16.5514 20.715C16.7239 19.4055 17.3237 18.1896 18.2576 17.2558C19.1916 16.3219 20.4076 15.7223 21.717 15.5499C23.0265 15.3776 24.3562 15.6421 25.5 16.3025V9.76999L10.5 12.2705V23C10.5 23.09 10.4925 23.177 10.4775 23.261C10.5852 24.4145 10.3084 25.5711 9.69009 26.5509C9.07182 27.5306 8.14687 28.2783 7.05935 28.6775C5.97182 29.0767 4.78279 29.105 3.67751 28.7579C2.57223 28.4109 1.61278 27.708 0.948638 26.7588C0.284495 25.8096 -0.04704 24.6673 0.00568724 23.5101C0.0584145 22.3528 0.492443 21.2454 1.24015 20.3606C1.98786 19.4757 3.00725 18.863 4.13951 18.6179C5.27176 18.3728 6.45329 18.509 7.50001 19.0055V6.27049C7.49993 5.56033 7.75177 4.87317 8.21074 4.33125C8.6697 3.78934 9.30603 3.42781 10.0065 3.31099L25.0065 0.811987ZM10.5 9.22999L25.5 6.72949V3.76999L10.5 6.27049V9.22999Z" fill="#E28DFF"/>
</svg>
