<svg width="36" height="36" viewBox="0 0 36 36" fill="none" xmlns="http://www.w3.org/2000/svg">
<path fill-rule="evenodd" clip-rule="evenodd" d="M28.0065 4.81199C28.4362 4.74033 28.8764 4.76311 29.2964 4.87874C29.7164 4.99438 30.1061 5.20009 30.4386 5.48159C30.771 5.76309 31.0382 6.11362 31.2215 6.50881C31.4048 6.90399 31.4999 7.33436 31.5 7.76999V25.5C31.4997 26.8207 31.0636 28.1045 30.2594 29.1521C29.4552 30.1998 28.3278 30.9528 27.052 31.2945C25.7762 31.6361 24.4233 31.5472 23.2031 31.0416C21.983 30.536 20.9638 29.6419 20.3035 28.4981C19.6433 27.3542 19.3789 26.0244 19.5514 24.715C19.7239 23.4055 20.3237 22.1896 21.2576 21.2558C22.1916 20.3219 23.4076 19.7223 24.717 19.5499C26.0265 19.3776 27.3562 19.6421 28.5 20.3025V13.77L13.5 16.2705V27C13.5 27.09 13.4925 27.177 13.4775 27.261C13.5852 28.4145 13.3084 29.5711 12.6901 30.5509C12.0718 31.5306 11.1469 32.2783 10.0593 32.6775C8.97182 33.0767 7.78279 33.105 6.67751 32.7579C5.57223 32.4109 4.61278 31.708 3.94864 30.7588C3.28449 29.8096 2.95296 28.6673 3.00569 27.5101C3.05841 26.3528 3.49244 25.2454 4.24015 24.3606C4.98786 23.4757 6.00725 22.863 7.13951 22.6179C8.27176 22.3728 9.45329 22.509 10.5 23.0055V10.2705C10.4999 9.56033 10.7518 8.87317 11.2107 8.33125C11.6697 7.78934 12.306 7.42781 13.0065 7.31099L28.0065 4.81199ZM13.5 13.23L28.5 10.7295V7.76999L13.5 10.2705V13.23Z" fill="#161616"/>
</svg>
