<svg width="27" height="27" viewBox="0 0 27 27" fill="none" xmlns="http://www.w3.org/2000/svg">
<path d="M12.375 22.5C12.375 22.7984 12.4935 23.0845 12.7045 23.2955C12.9155 23.5065 13.2016 23.625 13.5 23.625C13.7984 23.625 14.0845 23.5065 14.2955 23.2955C14.5065 23.0845 14.625 22.7984 14.625 22.5V14.625H22.5C22.7984 14.625 23.0845 14.5065 23.2955 14.2955C23.5065 14.0845 23.625 13.7984 23.625 13.5C23.625 13.2016 23.5065 12.9155 23.2955 12.7045C23.0845 12.4935 22.7984 12.375 22.5 12.375H14.625V4.5C14.625 4.20163 14.5065 3.91548 14.2955 3.7045C14.0845 3.49353 13.7984 3.375 13.5 3.375C13.2016 3.375 12.9155 3.49353 12.7045 3.7045C12.4935 3.91548 12.375 4.20163 12.375 4.5V12.375H4.5C4.20163 12.375 3.91548 12.4935 3.7045 12.7045C3.49353 12.9155 3.375 13.2016 3.375 13.5C3.375 13.7984 3.49353 14.0845 3.7045 14.2955C3.91548 14.5065 4.20163 14.625 4.5 14.625H12.375V22.5Z" fill="white"/>
</svg>
