<svg width="36" height="36" viewBox="0 0 36 36" fill="none" xmlns="http://www.w3.org/2000/svg">
<path d="M19.5 3.00001C20.6111 2.99819 21.6837 3.40755 22.5111 4.14925C23.3384 4.89095 23.8622 5.91255 23.9813 7.0173C24.1005 8.12205 23.8068 9.23184 23.1566 10.133C22.5065 11.0341 21.5459 11.6628 20.46 11.898L20.2035 11.946L22.3575 15.3915L24.9435 14.3565C25.2992 14.2129 25.6963 14.211 26.0534 14.3513C26.4104 14.4915 26.7001 14.7632 26.863 15.1105C27.0259 15.4578 27.0496 15.8543 26.9291 16.2184C26.8087 16.5826 26.5533 16.8868 26.2155 17.0685L26.0565 17.1435L23.472 18.177C22.8593 18.4221 22.1829 18.4584 21.5476 18.2802C20.9122 18.1021 20.3533 17.7194 19.9575 17.1915L19.8135 16.9815L19.569 16.5915L18.66 20.2275C18.5813 20.5439 18.4516 20.8453 18.276 21.12L18.141 21.315L20.6205 23.157C21.2119 23.5965 21.6209 24.2383 21.7695 24.96L21.813 25.233L22.3425 30H22.5C22.8823 30.0004 23.25 30.1468 23.528 30.4093C23.806 30.6717 23.9733 31.0304 23.9957 31.4121C24.0181 31.7938 23.8939 32.1696 23.6486 32.4628C23.4032 32.7559 23.0551 32.9444 22.6755 32.9895L22.5 33H21.135C20.7596 33.0001 20.3954 32.8722 20.1025 32.6374C19.8096 32.4026 19.6055 32.0749 19.524 31.7085L19.494 31.533L18.831 25.5645L14.106 22.0545C14.0219 21.9927 13.9444 21.9223 13.875 21.8445C13.4582 21.511 13.1379 21.0722 12.9473 20.5736C12.7567 20.075 12.7025 19.5345 12.7905 19.008L12.84 18.7725L14.031 14.007L11.676 14.712L10.4235 18.474C10.3032 18.838 10.0481 19.1421 9.71056 19.3239C9.37305 19.5057 8.97875 19.5514 8.60861 19.4516C8.23848 19.3517 7.92062 19.114 7.7203 18.7871C7.51998 18.4603 7.45241 18.0691 7.53146 17.694L7.57646 17.526L8.83046 13.764C8.96977 13.3466 9.1992 12.9649 9.50249 12.6461C9.80579 12.3272 10.1755 12.079 10.5855 11.919L10.815 11.8395L15.9705 10.293C15.4455 9.62985 15.1181 8.83218 15.0257 7.99146C14.9333 7.15074 15.0798 6.30101 15.4482 5.5397C15.8167 4.77839 16.3922 4.13632 17.1088 3.68713C17.8255 3.23793 18.6542 2.99979 19.5 3.00001ZM14.4 22.8C14.7182 23.0387 14.9286 23.394 14.9849 23.7879C15.0411 24.1817 14.9387 24.5817 14.7 24.9L12.876 27.333C12.5309 27.7931 12.0227 28.1035 11.4558 28.2006C10.889 28.2977 10.3065 28.174 9.82796 27.855L6.93296 25.9245C6.63331 26.165 6.25281 26.2813 5.86992 26.2495C5.48703 26.2177 5.13095 26.0401 4.8751 25.7535C4.61925 25.4669 4.48314 25.093 4.49484 24.709C4.50653 24.3249 4.66514 23.96 4.93796 23.6895L5.68046 22.9485C5.92801 22.7005 6.25391 22.5459 6.60263 22.5112C6.95136 22.4764 7.30134 22.5637 7.59296 22.758L10.902 24.9645L12.3 23.1C12.4181 22.9424 12.5662 22.8097 12.7357 22.7093C12.9052 22.6089 13.0928 22.5429 13.2878 22.5151C13.4828 22.4872 13.6814 22.498 13.8722 22.5469C14.0631 22.5958 14.2424 22.6818 14.4 22.8Z" fill="#94D0B0"/>
</svg>
