<svg width="24" height="24" viewBox="0 0 24 24" fill="none" xmlns="http://www.w3.org/2000/svg">
<path fill-rule="evenodd" clip-rule="evenodd" d="M17.883 2C18.1642 1.99998 18.4423 2.05927 18.699 2.17399C18.9558 2.28871 19.1855 2.45629 19.3731 2.66578C19.5607 2.87528 19.702 3.12198 19.7878 3.38979C19.8736 3.6576 19.9019 3.94049 19.871 4.22L18.093 20.22C18.0388 20.7094 17.8061 21.1616 17.4392 21.49C17.0724 21.8184 16.5974 22 16.105 22H7.895C7.40263 22 6.92756 21.8184 6.56074 21.49C6.19393 21.1616 5.96116 20.7094 5.907 20.22L4.13 4.22C4.09907 3.94057 4.1274 3.65777 4.21315 3.39003C4.29889 3.12229 4.44011 2.87563 4.6276 2.66616C4.8151 2.45668 5.04465 2.28908 5.30128 2.17429C5.55791 2.05951 5.83586 2.00012 6.117 2H17.883ZM13 15C12.7348 15 12.4804 15.1054 12.2929 15.2929C12.1054 15.4804 12 15.7348 12 16C12 16.2652 12.1054 16.5196 12.2929 16.7071C12.4804 16.8946 12.7348 17 13 17C13.2652 17 13.5196 16.8946 13.7071 16.7071C13.8946 16.5196 14 16.2652 14 16C14 15.7348 13.8946 15.4804 13.7071 15.2929C13.5196 15.1054 13.2652 15 13 15ZM10 12C9.73478 12 9.48043 12.1054 9.29289 12.2929C9.10535 12.4804 9 12.7348 9 13C9 13.2652 9.10535 13.5196 9.29289 13.7071C9.48043 13.8946 9.73478 14 10 14C10.2652 14 10.5196 13.8946 10.7071 13.7071C10.8946 13.5196 11 13.2652 11 13C11 12.7348 10.8946 12.4804 10.7071 12.2929C10.5196 12.1054 10.2652 12 10 12ZM17.883 4H6.117L6.542 7.823L6.729 7.79C6.989 7.746 7.29 7.71 7.629 7.69C8.757 7.623 10.292 7.747 12.059 8.443L12.394 8.581C13.886 9.221 15.159 9.353 16.075 9.322L17.299 9.254L17.883 4Z" fill="#161616"/>
</svg>
