<svg width="25" height="25" viewBox="0 0 25 25" fill="none" xmlns="http://www.w3.org/2000/svg">
<path fill-rule="evenodd" clip-rule="evenodd" d="M18.383 2.5C18.6642 2.49998 18.9423 2.55927 19.199 2.67399C19.4558 2.78871 19.6855 2.95629 19.8731 3.16578C20.0607 3.37528 20.202 3.62198 20.2878 3.88979C20.3736 4.1576 20.4019 4.44049 20.371 4.72L18.593 20.72C18.5388 21.2094 18.3061 21.6616 17.9392 21.99C17.5724 22.3184 17.0974 22.5 16.605 22.5H8.395C7.90263 22.5 7.42756 22.3184 7.06074 21.99C6.69393 21.6616 6.46116 21.2094 6.407 20.72L4.63 4.72C4.59907 4.44057 4.6274 4.15777 4.71315 3.89003C4.79889 3.62229 4.94011 3.37563 5.1276 3.16616C5.3151 2.95668 5.54465 2.78908 5.80128 2.67429C6.05791 2.55951 6.33586 2.50012 6.617 2.5H18.383ZM13.5 15.5C13.2348 15.5 12.9804 15.6054 12.7929 15.7929C12.6054 15.9804 12.5 16.2348 12.5 16.5C12.5 16.7652 12.6054 17.0196 12.7929 17.2071C12.9804 17.3946 13.2348 17.5 13.5 17.5C13.7652 17.5 14.0196 17.3946 14.2071 17.2071C14.3946 17.0196 14.5 16.7652 14.5 16.5C14.5 16.2348 14.3946 15.9804 14.2071 15.7929C14.0196 15.6054 13.7652 15.5 13.5 15.5ZM10.5 12.5C10.2348 12.5 9.98043 12.6054 9.79289 12.7929C9.60535 12.9804 9.5 13.2348 9.5 13.5C9.5 13.7652 9.60535 14.0196 9.79289 14.2071C9.98043 14.3946 10.2348 14.5 10.5 14.5C10.7652 14.5 11.0196 14.3946 11.2071 14.2071C11.3946 14.0196 11.5 13.7652 11.5 13.5C11.5 13.2348 11.3946 12.9804 11.2071 12.7929C11.0196 12.6054 10.7652 12.5 10.5 12.5ZM18.383 4.5H6.617L7.042 8.323L7.229 8.29C7.489 8.246 7.79 8.21 8.129 8.19C9.257 8.123 10.792 8.247 12.559 8.943L12.894 9.081C14.386 9.721 15.659 9.853 16.575 9.822L17.799 9.754L18.383 4.5Z" fill="#36E4E4"/>
</svg>
